# xmcd
#
# Track frame offsets: 
#        150
#        9149
#        39614
#        57112
#        83409
#        98913
#        117996
#        127546
#        131478
#        149407
#        171637
#        191033
#        196522
#        201530
#        212868
#        216685
#        248261
#        255123
#        263956
#        270714
#        274966
#        285013
#        293482
#        297325
#        313551
#
# Disc length: 4217 seconds
#
# Revision: 0
# Processed by: cddbd v1.4PL0 Copyright (c) Steve Scherf et al.
# Submitted via: ExactAudioCopy v0.90b4
#
DISCID=70107719
DTITLE=Bob Dylan - Peco's Blues 
DYEAR=1991
DGENRE=Country
TTITLE0=Billy 1
TTITLE1=Billy 2
TTITLE2=Turkey
TTITLE3=Turkey 2
TTITLE4=Bill Surrenders
TTITLE5=And He's Killed Me Too
TTITLE6=Goodbye Hooly
TTITLE7=Peco's Blues 1
TTITLE8=Peco's Blues 2
TTITLE9=Billy 3
TTITLE10=Knockin' On Heaven's Door 1
TTITLE11=Sweet Amarillo
TTITLE12=Knockin' On Heaven's Door 2
TTITLE13=Knockin' On Heaven's Door 3
TTITLE14=Final Theme 1
TTITLE15=Final Theme 2
TTITLE16=Rock Me Mama 1
TTITLE17=Rock Me Mama 2
TTITLE18=Billy 4
TTITLE19=Billy 5
TTITLE20=Instrumental 1
TTITLE21=Instrumental 2
TTITLE22=Final Theme 3
TTITLE23=Final Theme 4
TTITLE24=Dylan Talking
EXTD=
EXTT0=
EXTT1=
EXTT2=
EXTT3=
EXTT4=
EXTT5=
EXTT6=
EXTT7=
EXTT8=
EXTT9=
EXTT10=
EXTT11=
EXTT12=
EXTT13=
EXTT14=
EXTT15=
EXTT16=
EXTT17=
EXTT18=
EXTT19=
EXTT20=
EXTT21=
EXTT22=
EXTT23=
EXTT24=
PLAYORDER=
